<svg width="454" height="3" viewBox="0 0 454 3" fill="none" xmlns="http://www.w3.org/2000/svg">
<circle cx="1.5" cy="1.5" r="1.5" fill="#382620"/>
<circle cx="12.5" cy="1.5" r="1.5" fill="#382620"/>
<circle cx="23.5" cy="1.5" r="1.5" fill="#382620"/>
<circle cx="34.5" cy="1.5" r="1.5" fill="#382620"/>
<circle cx="45.5" cy="1.5" r="1.5" fill="#382620"/>
<circle cx="56.5" cy="1.5" r="1.5" fill="#382620"/>
<circle cx="67.5" cy="1.5" r="1.5" fill="#382620"/>
<circle cx="78.5" cy="1.5" r="1.5" fill="#382620"/>
<circle cx="89.5" cy="1.5" r="1.5" fill="#382620"/>
<circle cx="100.5" cy="1.5" r="1.5" fill="#382620"/>
<circle cx="111.5" cy="1.5" r="1.5" fill="#382620"/>
<circle cx="122.5" cy="1.5" r="1.5" fill="#382620"/>
<circle cx="133.5" cy="1.5" r="1.5" fill="#382620"/>
<circle cx="144.5" cy="1.5" r="1.5" fill="#382620"/>
<circle cx="155.5" cy="1.5" r="1.5" fill="#382620"/>
<circle cx="166.5" cy="1.5" r="1.5" fill="#382620"/>
<circle cx="177.5" cy="1.5" r="1.5" fill="#382620"/>
<circle cx="188.5" cy="1.5" r="1.5" fill="#382620"/>
<circle cx="199.5" cy="1.5" r="1.5" fill="#382620"/>
<circle cx="210.5" cy="1.5" r="1.5" fill="#382620"/>
<circle cx="221.5" cy="1.5" r="1.5" fill="#382620"/>
<circle cx="232.5" cy="1.5" r="1.5" fill="#382620"/>
<circle cx="243.5" cy="1.5" r="1.5" fill="#382620"/>
<circle cx="254.5" cy="1.5" r="1.5" fill="#382620"/>
<circle cx="265.5" cy="1.5" r="1.5" fill="#382620"/>
<circle cx="276.5" cy="1.5" r="1.5" fill="#382620"/>
<circle cx="287.5" cy="1.5" r="1.5" fill="#382620"/>
<circle cx="298.5" cy="1.5" r="1.5" fill="#382620"/>
<circle cx="309.5" cy="1.5" r="1.5" fill="#382620"/>
<circle cx="320.5" cy="1.5" r="1.5" fill="#382620"/>
<circle cx="331.5" cy="1.5" r="1.5" fill="#382620"/>
<circle cx="342.5" cy="1.5" r="1.5" fill="#382620"/>
<circle cx="353.5" cy="1.5" r="1.5" fill="#382620"/>
<circle cx="364.5" cy="1.5" r="1.5" fill="#382620"/>
<circle cx="375.5" cy="1.5" r="1.5" fill="#382620"/>
<circle cx="386.5" cy="1.5" r="1.5" fill="#382620"/>
<circle cx="397.5" cy="1.5" r="1.5" fill="#382620"/>
<circle cx="408.5" cy="1.5" r="1.5" fill="#382620"/>
<circle cx="419.5" cy="1.5" r="1.5" fill="#382620"/>
<circle cx="430.5" cy="1.5" r="1.5" fill="#382620"/>
<circle cx="441.5" cy="1.5" r="1.5" fill="#382620"/>
<circle cx="452.5" cy="1.5" r="1.5" fill="#382620"/>
</svg>
