<svg xmlns="http://www.w3.org/2000/svg" width="245" height="3" viewBox="0 0 245 3" fill="none">
  <circle cx="1.5" cy="1.5" r="1.5" fill="#382620"/>
  <circle cx="12.5" cy="1.5" r="1.5" fill="#382620"/>
  <circle cx="23.5" cy="1.5" r="1.5" fill="#382620"/>
  <circle cx="34.5" cy="1.5" r="1.5" fill="#382620"/>
  <circle cx="45.5" cy="1.5" r="1.5" fill="#382620"/>
  <circle cx="56.5" cy="1.5" r="1.5" fill="#382620"/>
  <circle cx="67.5" cy="1.5" r="1.5" fill="#382620"/>
  <circle cx="78.5" cy="1.5" r="1.5" fill="#382620"/>
  <circle cx="89.5" cy="1.5" r="1.5" fill="#382620"/>
  <circle cx="100.5" cy="1.5" r="1.5" fill="#382620"/>
  <circle cx="111.5" cy="1.5" r="1.5" fill="#382620"/>
  <circle cx="122.5" cy="1.5" r="1.5" fill="#382620"/>
  <circle cx="133.5" cy="1.5" r="1.5" fill="#382620"/>
  <circle cx="144.5" cy="1.5" r="1.5" fill="#382620"/>
  <circle cx="155.5" cy="1.5" r="1.5" fill="#382620"/>
  <circle cx="166.5" cy="1.5" r="1.5" fill="#382620"/>
  <circle cx="177.5" cy="1.5" r="1.5" fill="#382620"/>
  <circle cx="188.5" cy="1.5" r="1.5" fill="#382620"/>
  <circle cx="199.5" cy="1.5" r="1.5" fill="#382620"/>
  <circle cx="210.5" cy="1.5" r="1.5" fill="#382620"/>
  <circle cx="221.5" cy="1.5" r="1.5" fill="#382620"/>
  <circle cx="232.5" cy="1.5" r="1.5" fill="#382620"/>
  <circle cx="243.5" cy="1.5" r="1.5" fill="#382620"/>
</svg>
